<svg version="1" xmlns="http://www.w3.org/2000/svg" width="933.333" height="933.333" viewBox="0 0 700.000000 700.000000"><path d="M673.5.7c-1 .3-3.1 1.2-4.5 2.1-1.4.8-39.3 38.2-84.3 83.1-45 44.9-81.5 80.7-81.1 79.6.4-1.1 1.5-3.1 2.5-4.5 1.8-2.8 56.2-100.8 60.7-109.3 3.9-7.7 2.2-17.8-4.3-24.2-8.1-8.2-20.9-7.7-28.6 1.1-.9 1.1-7.4 12.2-14.4 24.9C503.7 82 502.6 84 499.6 89.2c-1.3 2.4-8.8 15.8-16.6 29.8-7.8 14-14.3 25.6-14.4 25.8-.2.1-3.2-2.5-6.7-5.9-25.1-24.5-41.3-31.8-62.4-28.5-23.4 3.8-60.4 29.9-83.6 59.1-8 10-38.3 50.4-47 62.6-4.1 5.7-10 13.9-13.2 18.3-3.1 4.5-6.8 9.7-8.2 11.6-3.4 5-17.3 24.3-18.2 25.5-.5.5-7.4 10.2-15.4 21.5s-18.2 25.7-22.7 32c-15.5 21.8-33 46.6-66.8 95-42.1 60.3-53 76-54.6 78.2-17.1 24.2-52.6 75.7-55 79.8C4.8 610.9 0 627.7.5 643.9c.4 15.3 5.9 28.2 16.2 38.6 19.8 19.8 46 22.5 78.7 8.3 7.1-3.1 35.3-21.8 69.1-45.8 1.7-1.2 20.3-14.2 41.5-29 21.2-14.7 39.9-27.8 41.5-29 1.7-1.2 14.3-10 28-19.5 13.8-9.6 25.5-17.8 26-18.2.6-.5 4.4-3.2 8.5-6.1 4.1-2.8 11.3-7.8 16-11.2 4.7-3.3 9.6-6.8 11-7.8 3.2-2.2 45.2-31.7 69-48.5 10.2-7.2 19.2-13.7 20-14.5.8-.7 7.6-5.7 15.1-11s18.2-13.1 23.9-17.2c5.6-4.1 11.4-8.4 13-9.5 5.5-3.9 40.5-29.9 41-30.4.3-.3 3.4-2.8 7-5.6 10.1-7.8 12-9.4 20.3-17.8 28.9-29.3 43.9-55.9 43.9-77.8 0-17.4-7.7-31.7-28.1-52.7-3.9-4.1-6.9-7.7-6.6-8.2.3-.5 4-2.7 8.3-5.1 4.2-2.3 9.3-5.1 11.2-6.2 1.9-1.1 22.9-12.8 46.5-26 50.5-28.2 49.6-27.7 52.8-31.9 11-14.5-2.7-33.9-21-29.8-2.1.5-15.5 7.4-29.7 15.5-14.2 8-26 14.5-26.1 14.5-.1 0-5.3 2.9-11.5 6.5s-11.4 6.5-11.6 6.5c-.2 0-5 2.6-10.7 5.9-5.6 3.2-12.7 7.2-15.7 8.9-3 1.6-8.4 4.6-12 6.7-5.8 3.2 2.2-5.1 76.6-79.7 45.7-45.8 83.9-84.6 84.9-86.2 2.3-3.8 2.8-13 .9-17.6-1.8-4.2-5.8-8.6-9.8-10.7C685.5.7 676.8-.2 673.5.7z"/></svg>